<svg xmlns="http://www.w3.org/2000/svg" xmlns:xlink="http://www.w3.org/1999/xlink" width="500" zoomAndPan="magnify" viewBox="0 0 375 374.999991" height="500" preserveAspectRatio="xMidYMid meet" version="1.0"><defs><g/><clipPath id="5c2870aa10"><path d="M 46.597656 11.371094 L 328.597656 11.371094 L 328.597656 363.871094 L 46.597656 363.871094 Z M 46.597656 11.371094 " clip-rule="nonzero"/></clipPath><clipPath id="3543a74727"><path d="M 237 73 L 328.597656 73 L 328.597656 170 L 237 170 Z M 237 73 " clip-rule="nonzero"/></clipPath><clipPath id="c0fdc8f8be"><path d="M 222 11.371094 L 328.597656 11.371094 L 328.597656 118 L 222 118 Z M 222 11.371094 " clip-rule="nonzero"/></clipPath><clipPath id="4874a0a95b"><path d="M 73.296875 159.375 L 293.183594 159.375 L 293.183594 309.375 L 73.296875 309.375 Z M 73.296875 159.375 " clip-rule="nonzero"/></clipPath></defs><g clip-path="url(#5c2870aa10)"><path fill="#ffffff" d="M 81.820312 11.371094 L 222.722656 11.371094 L 275.558594 64.210938 L 328.398438 117.046875 L 328.398438 328.398438 C 328.398438 329.550781 328.339844 330.703125 328.226562 331.851562 C 328.113281 333 327.945312 334.136719 327.71875 335.269531 C 327.496094 336.402344 327.214844 337.519531 326.878906 338.625 C 326.546875 339.726562 326.15625 340.8125 325.714844 341.878906 C 325.273438 342.945312 324.78125 343.984375 324.238281 345.003906 C 323.695312 346.019531 323.101562 347.007812 322.460938 347.96875 C 321.820312 348.925781 321.132812 349.851562 320.402344 350.746094 C 319.667969 351.636719 318.894531 352.488281 318.078125 353.304688 C 317.265625 354.121094 316.410156 354.894531 315.519531 355.628906 C 314.625 356.359375 313.703125 357.046875 312.742188 357.6875 C 311.78125 358.328125 310.792969 358.917969 309.777344 359.464844 C 308.757812 360.007812 307.71875 360.5 306.652344 360.941406 C 305.585938 361.382812 304.5 361.769531 303.398438 362.105469 C 302.292969 362.441406 301.175781 362.722656 300.042969 362.945312 C 298.914062 363.171875 297.773438 363.339844 296.625 363.453125 C 295.476562 363.566406 294.324219 363.621094 293.171875 363.621094 L 81.820312 363.621094 C 80.667969 363.621094 79.515625 363.566406 78.367188 363.453125 C 77.222656 363.339844 76.082031 363.171875 74.949219 362.945312 C 73.816406 362.722656 72.699219 362.441406 71.597656 362.105469 C 70.492188 361.769531 69.40625 361.382812 68.339844 360.941406 C 67.277344 360.5 66.234375 360.007812 65.214844 359.464844 C 64.199219 358.917969 63.210938 358.328125 62.25 357.6875 C 61.292969 357.046875 60.367188 356.359375 59.476562 355.628906 C 58.582031 354.894531 57.730469 354.121094 56.914062 353.304688 C 56.097656 352.488281 55.324219 351.636719 54.59375 350.746094 C 53.859375 349.851562 53.175781 348.925781 52.53125 347.96875 C 51.890625 347.007812 51.300781 346.019531 50.753906 345.003906 C 50.210938 343.984375 49.71875 342.945312 49.277344 341.878906 C 48.835938 340.8125 48.449219 339.726562 48.113281 338.625 C 47.777344 337.519531 47.5 336.402344 47.273438 335.269531 C 47.046875 334.136719 46.878906 333 46.765625 331.851562 C 46.652344 330.703125 46.597656 329.550781 46.597656 328.398438 L 46.597656 46.597656 C 46.597656 45.445312 46.652344 44.292969 46.765625 43.144531 C 46.878906 41.996094 47.046875 40.855469 47.273438 39.726562 C 47.5 38.59375 47.777344 37.476562 48.113281 36.371094 C 48.449219 35.269531 48.835938 34.183594 49.277344 33.117188 C 49.71875 32.050781 50.210938 31.007812 50.753906 29.992188 C 51.300781 28.976562 51.890625 27.988281 52.53125 27.027344 C 53.175781 26.066406 53.859375 25.140625 54.59375 24.25 C 55.324219 23.359375 56.097656 22.503906 56.914062 21.6875 C 57.730469 20.875 58.582031 20.101562 59.476562 19.367188 C 60.367188 18.636719 61.292969 17.949219 62.25 17.308594 C 63.210938 16.667969 64.199219 16.074219 65.214844 15.53125 C 66.234375 14.988281 67.277344 14.496094 68.339844 14.054688 C 69.40625 13.613281 70.492188 13.222656 71.597656 12.890625 C 72.699219 12.554688 73.816406 12.273438 74.949219 12.050781 C 76.082031 11.824219 77.222656 11.65625 78.367188 11.542969 C 79.515625 11.429688 80.667969 11.371094 81.820312 11.371094 Z M 81.820312 11.371094 " fill-opacity="1" fill-rule="nonzero"/></g><g fill="#ffffff" fill-opacity="1"><g transform="translate(81.82155, 266.225579)"><g><path d="M 66.875 -49.6875 C 66.875 -45.007812 65.804688 -40.828125 63.671875 -37.140625 C 61.535156 -33.460938 58.476562 -30.617188 54.5 -28.609375 C 50.53125 -26.597656 45.8125 -25.59375 40.34375 -25.59375 L 22.296875 -25.59375 L 22.296875 0 L 7.0625 0 L 7.0625 -72.703125 L 39.734375 -72.703125 C 48.429688 -72.703125 55.128906 -70.695312 59.828125 -66.6875 C 64.523438 -62.675781 66.875 -57.007812 66.875 -49.6875 Z M 51.546875 -49.4375 C 51.546875 -57.070312 47.039062 -60.890625 38.03125 -60.890625 L 22.296875 -60.890625 L 22.296875 -37.3125 L 38.4375 -37.3125 C 42.632812 -37.3125 45.867188 -38.347656 48.140625 -40.421875 C 50.410156 -42.503906 51.546875 -45.507812 51.546875 -49.4375 Z M 51.546875 -49.4375 "/></g></g></g><g fill="#ffffff" fill-opacity="1"><g transform="translate(152.301255, 266.225579)"><g><path d="M 71.875 -36.890625 C 71.875 -29.390625 70.398438 -22.84375 67.453125 -17.25 C 64.515625 -11.664062 60.351562 -7.394531 54.96875 -4.4375 C 49.59375 -1.476562 43.429688 0 36.484375 0 L 7.0625 0 L 7.0625 -72.703125 L 33.390625 -72.703125 C 45.628906 -72.703125 55.101562 -69.613281 61.8125 -63.4375 C 68.519531 -57.257812 71.875 -48.410156 71.875 -36.890625 Z M 56.546875 -36.890625 C 56.546875 -44.703125 54.515625 -50.660156 50.453125 -54.765625 C 46.398438 -58.878906 40.609375 -60.9375 33.078125 -60.9375 L 22.296875 -60.9375 L 22.296875 -11.765625 L 35.1875 -11.765625 C 41.726562 -11.765625 46.921875 -14.015625 50.765625 -18.515625 C 54.617188 -23.023438 56.546875 -29.148438 56.546875 -36.890625 Z M 56.546875 -36.890625 "/></g></g></g><g fill="#ffffff" fill-opacity="1"><g transform="translate(228.611278, 266.225579)"><g><path d="M 22.296875 -60.9375 L 22.296875 -38.4375 L 59.484375 -38.4375 L 59.484375 -26.671875 L 22.296875 -26.671875 L 22.296875 0 L 7.0625 0 L 7.0625 -72.703125 L 60.671875 -72.703125 L 60.671875 -60.9375 Z M 22.296875 -60.9375 "/></g></g></g><g clip-path="url(#3543a74727)"><path fill="#a0a0d8" d="M 328.398438 169.179688 L 237.164062 110.355469 L 282.78125 73.542969 L 328.398438 117.046875 Z M 328.398438 169.179688 " fill-opacity="1" fill-rule="nonzero"/></g><g clip-path="url(#c0fdc8f8be)"><path fill="#cfcccc" d="M 222.722656 11.371094 L 222.722656 81.820312 C 222.722656 82.976562 222.777344 84.125 222.890625 85.273438 C 223.003906 86.421875 223.171875 87.5625 223.398438 88.695312 C 223.625 89.824219 223.902344 90.945312 224.238281 92.046875 C 224.574219 93.152344 224.960938 94.238281 225.402344 95.300781 C 225.84375 96.367188 226.335938 97.410156 226.882812 98.425781 C 227.425781 99.445312 228.015625 100.433594 228.660156 101.390625 C 229.300781 102.351562 229.984375 103.277344 230.71875 104.167969 C 231.449219 105.0625 232.222656 105.914062 233.039062 106.730469 C 233.855469 107.546875 234.707031 108.320312 235.601562 109.050781 C 236.492188 109.785156 237.417969 110.46875 238.378906 111.109375 C 239.335938 111.75 240.324219 112.34375 241.34375 112.886719 C 242.359375 113.433594 243.402344 113.925781 244.46875 114.367188 C 245.53125 114.808594 246.617188 115.195312 247.722656 115.53125 C 248.824219 115.867188 249.945312 116.144531 251.074219 116.371094 C 252.207031 116.59375 253.347656 116.765625 254.496094 116.878906 C 255.640625 116.992188 256.792969 117.046875 257.945312 117.046875 L 328.398438 117.046875 Z M 222.722656 11.371094 " fill-opacity="1" fill-rule="nonzero"/></g><g clip-path="url(#4874a0a95b)"><path fill="#ffffff" d="M 73.296875 159.375 L 293.023438 159.375 L 293.023438 309.375 L 73.296875 309.375 Z M 73.296875 159.375 " fill-opacity="1" fill-rule="nonzero"/></g><g fill="#000080" fill-opacity="1"><g transform="translate(88.170628, 278.951605)"><g><path d="M 61.421875 -53.890625 C 61.421875 -49.546875 60.742188 -45.695312 59.390625 -42.34375 C 58.035156 -39 56.0625 -36.179688 53.46875 -33.890625 C 50.882812 -31.597656 47.707031 -29.851562 43.9375 -28.65625 C 40.164062 -27.457031 35.726562 -26.859375 30.625 -26.859375 L 24.171875 -26.859375 L 24.171875 -2.15625 C 24.171875 -1.757812 24.039062 -1.398438 23.78125 -1.078125 C 23.519531 -0.753906 23.085938 -0.492188 22.484375 -0.296875 C 21.890625 -0.0976562 21.09375 0.0546875 20.09375 0.171875 C 19.101562 0.296875 17.828125 0.359375 16.265625 0.359375 C 14.753906 0.359375 13.488281 0.296875 12.46875 0.171875 C 11.457031 0.0546875 10.648438 -0.0976562 10.046875 -0.296875 C 9.453125 -0.492188 9.035156 -0.753906 8.796875 -1.078125 C 8.554688 -1.398438 8.4375 -1.757812 8.4375 -2.15625 L 8.4375 -71.78125 C 8.4375 -73.65625 8.921875 -75.0625 9.890625 -76 C 10.867188 -76.9375 12.15625 -77.40625 13.75 -77.40625 L 32 -77.40625 C 33.832031 -77.40625 35.578125 -77.332031 37.234375 -77.1875 C 38.890625 -77.050781 40.875 -76.753906 43.1875 -76.296875 C 45.5 -75.835938 47.835938 -74.988281 50.203125 -73.75 C 52.578125 -72.507812 54.601562 -70.941406 56.28125 -69.046875 C 57.957031 -67.160156 59.234375 -64.953125 60.109375 -62.421875 C 60.984375 -59.890625 61.421875 -57.046875 61.421875 -53.890625 Z M 44.984375 -52.75 C 44.984375 -55.46875 44.503906 -57.703125 43.546875 -59.453125 C 42.585938 -61.210938 41.410156 -62.507812 40.015625 -63.34375 C 38.617188 -64.175781 37.148438 -64.703125 35.609375 -64.921875 C 34.078125 -65.140625 32.492188 -65.25 30.859375 -65.25 L 24.171875 -65.25 L 24.171875 -39 L 31.21875 -39 C 33.726562 -39 35.832031 -39.335938 37.53125 -40.015625 C 39.226562 -40.691406 40.613281 -41.640625 41.6875 -42.859375 C 42.769531 -44.078125 43.585938 -45.53125 44.140625 -47.21875 C 44.703125 -48.914062 44.984375 -50.757812 44.984375 -52.75 Z M 44.984375 -52.75 "/></g></g></g><g fill="#000080" fill-opacity="1"><g transform="translate(153.365061, 278.951605)"><g><path d="M 72.734375 -39.84375 C 72.734375 -32.738281 71.804688 -26.664062 69.953125 -21.625 C 68.097656 -16.582031 65.4375 -12.460938 61.96875 -9.265625 C 58.5 -6.078125 54.28125 -3.734375 49.3125 -2.234375 C 44.351562 -0.742188 38.441406 0 31.578125 0 L 13.09375 0 C 11.78125 0 10.675781 -0.382812 9.78125 -1.15625 C 8.882812 -1.9375 8.4375 -3.207031 8.4375 -4.96875 L 8.4375 -72.4375 C 8.4375 -74.1875 8.882812 -75.453125 9.78125 -76.234375 C 10.675781 -77.015625 11.78125 -77.40625 13.09375 -77.40625 L 32.953125 -77.40625 C 39.859375 -77.40625 45.710938 -76.597656 50.515625 -74.984375 C 55.316406 -73.367188 59.363281 -70.972656 62.65625 -67.796875 C 65.945312 -64.628906 68.445312 -60.710938 70.15625 -56.046875 C 71.875 -51.378906 72.734375 -45.976562 72.734375 -39.84375 Z M 56.46875 -39.296875 C 56.46875 -42.960938 56.035156 -46.367188 55.171875 -49.515625 C 54.316406 -52.671875 52.941406 -55.40625 51.046875 -57.71875 C 49.148438 -60.03125 46.71875 -61.832031 43.75 -63.125 C 40.78125 -64.425781 36.882812 -65.078125 32.0625 -65.078125 L 24.109375 -65.078125 L 24.109375 -12.4375 L 32.296875 -12.4375 C 36.609375 -12.4375 40.238281 -12.992188 43.1875 -14.109375 C 46.132812 -15.234375 48.59375 -16.921875 50.5625 -19.171875 C 52.539062 -21.421875 54.019531 -24.21875 55 -27.5625 C 55.976562 -30.914062 56.46875 -34.828125 56.46875 -39.296875 Z M 56.46875 -39.296875 "/></g></g></g><g fill="#000080" fill-opacity="1"><g transform="translate(230.581587, 278.951605)"><g><path d="M 51.859375 -70.9375 C 51.859375 -69.738281 51.804688 -68.726562 51.703125 -67.90625 C 51.609375 -67.09375 51.453125 -66.445312 51.234375 -65.96875 C 51.015625 -65.488281 50.765625 -65.128906 50.484375 -64.890625 C 50.203125 -64.660156 49.882812 -64.546875 49.53125 -64.546875 L 24.21875 -64.546875 L 24.21875 -43.71875 L 47.96875 -43.71875 C 48.332031 -43.71875 48.648438 -43.617188 48.921875 -43.421875 C 49.203125 -43.222656 49.453125 -42.882812 49.671875 -42.40625 C 49.890625 -41.925781 50.046875 -41.285156 50.140625 -40.484375 C 50.242188 -39.691406 50.296875 -38.695312 50.296875 -37.5 C 50.296875 -36.300781 50.242188 -35.300781 50.140625 -34.5 C 50.046875 -33.707031 49.890625 -33.050781 49.671875 -32.53125 C 49.453125 -32.019531 49.203125 -31.65625 48.921875 -31.4375 C 48.648438 -31.21875 48.332031 -31.109375 47.96875 -31.109375 L 24.21875 -31.109375 L 24.21875 -2.265625 C 24.21875 -1.828125 24.097656 -1.445312 23.859375 -1.125 C 23.617188 -0.8125 23.191406 -0.546875 22.578125 -0.328125 C 21.960938 -0.109375 21.15625 0.0546875 20.15625 0.171875 C 19.15625 0.296875 17.878906 0.359375 16.328125 0.359375 C 14.816406 0.359375 13.550781 0.296875 12.53125 0.171875 C 11.507812 0.0546875 10.703125 -0.109375 10.109375 -0.328125 C 9.515625 -0.546875 9.085938 -0.8125 8.828125 -1.125 C 8.566406 -1.445312 8.4375 -1.828125 8.4375 -2.265625 L 8.4375 -72.4375 C 8.4375 -74.1875 8.882812 -75.453125 9.78125 -76.234375 C 10.675781 -77.015625 11.78125 -77.40625 13.09375 -77.40625 L 49.53125 -77.40625 C 49.882812 -77.40625 50.203125 -77.289062 50.484375 -77.0625 C 50.765625 -76.84375 51.015625 -76.484375 51.234375 -75.984375 C 51.453125 -75.492188 51.609375 -74.828125 51.703125 -73.984375 C 51.804688 -73.148438 51.859375 -72.132812 51.859375 -70.9375 Z M 51.859375 -70.9375 "/></g></g></g></svg>