<svg xmlns="http://www.w3.org/2000/svg" xmlns:xlink="http://www.w3.org/1999/xlink" width="500" zoomAndPan="magnify" viewBox="0 0 375 374.999991" height="500" preserveAspectRatio="xMidYMid meet" version="1.0"><defs><g/><clipPath id="acc95735d7"><path d="M 49.339844 14.800781 L 325.339844 14.800781 L 325.339844 360.550781 L 49.339844 360.550781 Z M 49.339844 14.800781 " clip-rule="nonzero"/></clipPath><clipPath id="cdf0d34c95"><path d="M 235 75 L 325.339844 75 L 325.339844 170 L 235 170 Z M 235 75 " clip-rule="nonzero"/></clipPath><clipPath id="76cb737bce"><path d="M 221 14.800781 L 325.339844 14.800781 L 325.339844 119 L 221 119 Z M 221 14.800781 " clip-rule="nonzero"/></clipPath></defs><g clip-path="url(#acc95735d7)"><path fill="#de3b38" d="M 83.839844 14.800781 L 221.839844 14.800781 L 325.339844 118.527344 L 325.339844 325.972656 C 325.339844 327.105469 325.285156 328.234375 325.175781 329.363281 C 325.0625 330.488281 324.898438 331.609375 324.675781 332.71875 C 324.457031 333.832031 324.183594 334.925781 323.855469 336.011719 C 323.527344 337.09375 323.148438 338.160156 322.714844 339.207031 C 322.28125 340.25 321.800781 341.273438 321.265625 342.273438 C 320.734375 343.269531 320.152344 344.242188 319.527344 345.183594 C 318.898438 346.125 318.226562 347.03125 317.507812 347.910156 C 316.792969 348.785156 316.035156 349.621094 315.234375 350.421875 C 314.4375 351.222656 313.601562 351.984375 312.726562 352.699219 C 311.851562 353.417969 310.945312 354.09375 310.007812 354.722656 C 309.066406 355.351562 308.101562 355.933594 307.105469 356.464844 C 306.105469 357 305.085938 357.484375 304.042969 357.917969 C 303 358.351562 301.9375 358.730469 300.855469 359.058594 C 299.773438 359.390625 298.679688 359.664062 297.570312 359.882812 C 296.460938 360.105469 295.347656 360.273438 294.222656 360.382812 C 293.097656 360.492188 291.96875 360.550781 290.839844 360.550781 L 83.839844 360.550781 C 82.710938 360.550781 81.582031 360.492188 80.457031 360.382812 C 79.335938 360.273438 78.21875 360.105469 77.109375 359.882812 C 76 359.664062 74.90625 359.390625 73.824219 359.058594 C 72.746094 358.730469 71.683594 358.351562 70.636719 357.917969 C 69.59375 357.484375 68.574219 357 67.578125 356.464844 C 66.582031 355.933594 65.613281 355.351562 64.671875 354.722656 C 63.734375 354.09375 62.828125 353.417969 61.953125 352.699219 C 61.082031 351.984375 60.246094 351.222656 59.445312 350.421875 C 58.644531 349.621094 57.886719 348.785156 57.171875 347.910156 C 56.453125 347.03125 55.78125 346.125 55.15625 345.183594 C 54.527344 344.242188 53.945312 343.269531 53.414062 342.273438 C 52.882812 341.273438 52.398438 340.25 51.964844 339.207031 C 51.535156 338.160156 51.152344 337.09375 50.824219 336.011719 C 50.496094 334.925781 50.222656 333.832031 50.003906 332.71875 C 49.78125 331.609375 49.617188 330.488281 49.507812 329.363281 C 49.394531 328.234375 49.339844 327.105469 49.339844 325.972656 L 49.339844 49.375 C 49.339844 48.246094 49.394531 47.113281 49.507812 45.988281 C 49.617188 44.859375 49.78125 43.742188 50.003906 42.632812 C 50.222656 41.519531 50.496094 40.421875 50.824219 39.339844 C 51.152344 38.257812 51.535156 37.191406 51.964844 36.144531 C 52.398438 35.097656 52.882812 34.078125 53.414062 33.078125 C 53.945312 32.078125 54.527344 31.109375 55.15625 30.167969 C 55.78125 29.226562 56.453125 28.316406 57.171875 27.441406 C 57.886719 26.566406 58.644531 25.730469 59.445312 24.929688 C 60.246094 24.128906 61.082031 23.367188 61.953125 22.648438 C 62.828125 21.929688 63.734375 21.257812 64.671875 20.628906 C 65.613281 20 66.582031 19.417969 67.578125 18.882812 C 68.574219 18.351562 69.59375 17.867188 70.636719 17.433594 C 71.683594 17 72.746094 16.621094 73.824219 16.289062 C 74.90625 15.960938 76 15.6875 77.109375 15.464844 C 78.21875 15.246094 79.335938 15.078125 80.457031 14.96875 C 81.582031 14.855469 82.710938 14.800781 83.839844 14.800781 Z M 83.839844 14.800781 " fill-opacity="1" fill-rule="nonzero"/></g><g fill="#ffffff" fill-opacity="1"><g transform="translate(83.840353, 264.949905)"><g><path d="M 65.5 -48.765625 C 65.5 -44.171875 64.453125 -40.066406 62.359375 -36.453125 C 60.273438 -32.847656 57.285156 -30.054688 53.390625 -28.078125 C 49.503906 -26.109375 44.878906 -25.125 39.515625 -25.125 L 21.828125 -25.125 L 21.828125 0 L 6.921875 0 L 6.921875 -71.359375 L 38.90625 -71.359375 C 47.4375 -71.359375 54 -69.390625 58.59375 -65.453125 C 63.195312 -61.523438 65.5 -55.960938 65.5 -48.765625 Z M 50.484375 -48.515625 C 50.484375 -56.015625 46.070312 -59.765625 37.25 -59.765625 L 21.828125 -59.765625 L 21.828125 -36.609375 L 37.65625 -36.609375 C 41.757812 -36.609375 44.921875 -37.628906 47.140625 -39.671875 C 49.367188 -41.722656 50.484375 -44.671875 50.484375 -48.515625 Z M 50.484375 -48.515625 "/></g></g></g><g fill="#ffffff" fill-opacity="1"><g transform="translate(152.865257, 264.949905)"><g><path d="M 70.390625 -36.203125 C 70.390625 -28.847656 68.945312 -22.425781 66.0625 -16.9375 C 63.1875 -11.445312 59.113281 -7.25 53.84375 -4.34375 C 48.570312 -1.445312 42.535156 0 35.734375 0 L 6.921875 0 L 6.921875 -71.359375 L 32.703125 -71.359375 C 44.691406 -71.359375 53.96875 -68.328125 60.53125 -62.265625 C 67.101562 -56.203125 70.390625 -47.515625 70.390625 -36.203125 Z M 55.390625 -36.203125 C 55.390625 -43.867188 53.398438 -49.71875 49.421875 -53.75 C 45.453125 -57.789062 39.773438 -59.8125 32.390625 -59.8125 L 21.828125 -59.8125 L 21.828125 -11.546875 L 34.46875 -11.546875 C 40.863281 -11.546875 45.945312 -13.753906 49.71875 -18.171875 C 53.5 -22.597656 55.390625 -28.609375 55.390625 -36.203125 Z M 55.390625 -36.203125 "/></g></g></g><g fill="#ffffff" fill-opacity="1"><g transform="translate(227.600133, 264.949905)"><g><path d="M 21.828125 -59.8125 L 21.828125 -37.734375 L 58.265625 -37.734375 L 58.265625 -26.1875 L 21.828125 -26.1875 L 21.828125 0 L 6.921875 0 L 6.921875 -71.359375 L 59.4375 -71.359375 L 59.4375 -59.8125 Z M 21.828125 -59.8125 "/></g></g></g><g clip-path="url(#cdf0d34c95)"><path fill="#d13532" d="M 325.339844 169.695312 L 235.984375 111.957031 L 280.664062 75.828125 L 325.339844 118.527344 Z M 325.339844 169.695312 " fill-opacity="1" fill-rule="nonzero"/></g><g clip-path="url(#76cb737bce)"><path fill="#d56c6f" d="M 221.839844 14.800781 L 221.839844 83.953125 C 221.839844 85.082031 221.894531 86.214844 222.007812 87.339844 C 222.117188 88.46875 222.28125 89.585938 222.503906 90.695312 C 222.722656 91.808594 222.996094 92.902344 223.324219 93.988281 C 223.652344 95.070312 224.035156 96.136719 224.464844 97.183594 C 224.898438 98.230469 225.382812 99.25 225.914062 100.25 C 226.445312 101.25 227.027344 102.21875 227.65625 103.160156 C 228.28125 104.101562 228.953125 105.011719 229.671875 105.886719 C 230.386719 106.761719 231.144531 107.597656 231.945312 108.398438 C 232.742188 109.199219 233.582031 109.960938 234.453125 110.679688 C 235.328125 111.394531 236.234375 112.070312 237.171875 112.699219 C 238.113281 113.328125 239.082031 113.910156 240.078125 114.445312 C 241.074219 114.976562 242.09375 115.460938 243.136719 115.894531 C 244.183594 116.328125 245.246094 116.707031 246.324219 117.039062 C 247.40625 117.367188 248.5 117.640625 249.609375 117.863281 C 250.71875 118.082031 251.835938 118.25 252.957031 118.359375 C 254.082031 118.46875 255.210938 118.527344 256.339844 118.527344 L 325.339844 118.527344 Z M 221.839844 14.800781 " fill-opacity="1" fill-rule="nonzero"/></g></svg>