<svg xmlns="http://www.w3.org/2000/svg" xmlns:xlink="http://www.w3.org/1999/xlink" width="500" zoomAndPan="magnify" viewBox="0 0 375 374.999991" height="500" preserveAspectRatio="xMidYMid meet" version="1.0"><defs><clipPath id="c91f34e167"><path d="M 50.191406 14.242188 L 324.691406 14.242188 L 324.691406 360.742188 L 50.191406 360.742188 Z M 50.191406 14.242188 " clip-rule="nonzero"/></clipPath></defs><g clip-path="url(#c91f34e167)"><path fill="#000000" d="M 302.902344 28.679688 L 295.6875 28.679688 L 295.6875 79.210938 C 295.6875 91.148438 285.972656 100.867188 274.039062 100.867188 C 262.101562 100.867188 252.390625 91.148438 252.390625 79.210938 C 252.390625 67.269531 262.101562 57.554688 274.039062 57.554688 C 276.578125 57.554688 278.988281 58.074219 281.253906 58.882812 L 281.253906 21.460938 C 281.253906 17.476562 278.019531 14.242188 274.039062 14.242188 C 270.054688 14.242188 266.820312 17.476562 266.820312 21.460938 L 266.820312 28.679688 L 237.957031 28.679688 L 237.957031 79.210938 C 237.957031 91.148438 228.242188 100.867188 216.308594 100.867188 C 204.371094 100.867188 194.660156 91.148438 194.660156 79.210938 C 194.660156 67.269531 204.371094 57.554688 216.308594 57.554688 C 218.847656 57.554688 221.257812 58.074219 223.523438 58.882812 L 223.523438 21.460938 C 223.523438 17.476562 220.292969 14.242188 216.308594 14.242188 C 212.324219 14.242188 209.089844 17.476562 209.089844 21.460938 L 209.089844 28.679688 L 180.226562 28.679688 L 180.226562 79.210938 C 180.226562 91.148438 170.511719 100.867188 158.578125 100.867188 C 146.640625 100.867188 136.929688 91.148438 136.929688 79.210938 C 136.929688 67.269531 146.640625 57.554688 158.578125 57.554688 C 161.117188 57.554688 163.527344 58.074219 165.792969 58.882812 L 165.792969 21.460938 C 165.792969 17.476562 162.5625 14.242188 158.578125 14.242188 C 154.59375 14.242188 151.363281 17.476562 151.363281 21.460938 L 151.363281 28.679688 L 122.496094 28.679688 L 122.496094 79.210938 C 122.496094 91.148438 112.785156 100.867188 100.847656 100.867188 C 88.914062 100.867188 79.199219 91.148438 79.199219 79.210938 C 79.199219 67.269531 88.914062 57.554688 100.847656 57.554688 C 103.386719 57.554688 105.796875 58.074219 108.0625 58.882812 L 108.0625 21.460938 C 108.0625 17.476562 104.832031 14.242188 100.847656 14.242188 C 96.863281 14.242188 93.632812 17.476562 93.632812 21.460938 L 93.632812 28.679688 L 71.984375 28.679688 C 60.046875 28.679688 50.335938 38.394531 50.335938 50.335938 L 50.335938 339.085938 C 50.335938 351.023438 60.046875 360.742188 71.984375 360.742188 L 302.902344 360.742188 C 314.839844 360.742188 324.550781 351.023438 324.550781 339.085938 L 324.550781 50.335938 C 324.550781 38.394531 314.839844 28.679688 302.902344 28.679688 Z M 230.738281 288.554688 L 100.847656 288.554688 C 96.863281 288.554688 93.632812 285.320312 93.632812 281.335938 C 93.632812 277.351562 96.863281 274.117188 100.847656 274.117188 L 230.738281 274.117188 C 234.722656 274.117188 237.957031 277.351562 237.957031 281.335938 C 237.957031 285.320312 234.722656 288.554688 230.738281 288.554688 Z M 274.039062 230.804688 L 100.847656 230.804688 C 96.863281 230.804688 93.632812 227.570312 93.632812 223.585938 C 93.632812 219.601562 96.863281 216.367188 100.847656 216.367188 L 274.039062 216.367188 C 278.019531 216.367188 281.253906 219.601562 281.253906 223.585938 C 281.253906 227.570312 278.019531 230.804688 274.039062 230.804688 Z M 274.039062 173.054688 L 100.847656 173.054688 C 96.863281 173.054688 93.632812 169.820312 93.632812 165.835938 C 93.632812 161.851562 96.863281 158.617188 100.847656 158.617188 L 274.039062 158.617188 C 278.019531 158.617188 281.253906 161.851562 281.253906 165.835938 C 281.253906 169.820312 278.019531 173.054688 274.039062 173.054688 Z M 274.039062 173.054688 " fill-opacity="1" fill-rule="nonzero"/></g></svg>