<svg xmlns="http://www.w3.org/2000/svg" xmlns:xlink="http://www.w3.org/1999/xlink" width="500" zoomAndPan="magnify" viewBox="0 0 375 374.999991" height="500" preserveAspectRatio="xMidYMid meet" version="1.0"><defs><g/><clipPath id="6d734a48b5"><path d="M 46.597656 11.371094 L 328.597656 11.371094 L 328.597656 363.871094 L 46.597656 363.871094 Z M 46.597656 11.371094 " clip-rule="nonzero"/></clipPath><clipPath id="98fc9affea"><path d="M 237 73 L 328.597656 73 L 328.597656 170 L 237 170 Z M 237 73 " clip-rule="nonzero"/></clipPath><clipPath id="dbc6b75a95"><path d="M 222 11.371094 L 328.597656 11.371094 L 328.597656 118 L 222 118 Z M 222 11.371094 " clip-rule="nonzero"/></clipPath></defs><g clip-path="url(#6d734a48b5)"><path fill="#000080" d="M 81.820312 11.371094 L 222.722656 11.371094 L 275.558594 64.210938 L 328.398438 117.046875 L 328.398438 328.398438 C 328.398438 329.550781 328.339844 330.703125 328.226562 331.851562 C 328.113281 333 327.945312 334.136719 327.71875 335.269531 C 327.496094 336.402344 327.214844 337.519531 326.878906 338.625 C 326.546875 339.726562 326.15625 340.8125 325.714844 341.878906 C 325.273438 342.945312 324.78125 343.984375 324.238281 345.003906 C 323.695312 346.019531 323.101562 347.007812 322.460938 347.96875 C 321.820312 348.925781 321.132812 349.851562 320.402344 350.746094 C 319.667969 351.636719 318.894531 352.488281 318.078125 353.304688 C 317.265625 354.121094 316.410156 354.894531 315.519531 355.628906 C 314.625 356.359375 313.703125 357.046875 312.742188 357.6875 C 311.78125 358.328125 310.792969 358.917969 309.777344 359.464844 C 308.757812 360.007812 307.71875 360.5 306.652344 360.941406 C 305.585938 361.382812 304.5 361.769531 303.398438 362.105469 C 302.292969 362.441406 301.175781 362.722656 300.042969 362.945312 C 298.914062 363.171875 297.773438 363.339844 296.625 363.453125 C 295.476562 363.566406 294.324219 363.621094 293.171875 363.621094 L 81.820312 363.621094 C 80.667969 363.621094 79.515625 363.566406 78.367188 363.453125 C 77.222656 363.339844 76.082031 363.171875 74.949219 362.945312 C 73.816406 362.722656 72.699219 362.441406 71.597656 362.105469 C 70.492188 361.769531 69.40625 361.382812 68.339844 360.941406 C 67.277344 360.5 66.234375 360.007812 65.214844 359.464844 C 64.199219 358.917969 63.210938 358.328125 62.25 357.6875 C 61.292969 357.046875 60.367188 356.359375 59.476562 355.628906 C 58.582031 354.894531 57.730469 354.121094 56.914062 353.304688 C 56.097656 352.488281 55.324219 351.636719 54.59375 350.746094 C 53.859375 349.851562 53.175781 348.925781 52.53125 347.96875 C 51.890625 347.007812 51.300781 346.019531 50.753906 345.003906 C 50.210938 343.984375 49.71875 342.945312 49.277344 341.878906 C 48.835938 340.8125 48.449219 339.726562 48.113281 338.625 C 47.777344 337.519531 47.5 336.402344 47.273438 335.269531 C 47.046875 334.136719 46.878906 333 46.765625 331.851562 C 46.652344 330.703125 46.597656 329.550781 46.597656 328.398438 L 46.597656 46.597656 C 46.597656 45.445312 46.652344 44.292969 46.765625 43.144531 C 46.878906 41.996094 47.046875 40.855469 47.273438 39.726562 C 47.5 38.59375 47.777344 37.476562 48.113281 36.371094 C 48.449219 35.269531 48.835938 34.183594 49.277344 33.117188 C 49.71875 32.050781 50.210938 31.007812 50.753906 29.992188 C 51.300781 28.976562 51.890625 27.988281 52.53125 27.027344 C 53.175781 26.066406 53.859375 25.140625 54.59375 24.25 C 55.324219 23.359375 56.097656 22.503906 56.914062 21.6875 C 57.730469 20.875 58.582031 20.101562 59.476562 19.367188 C 60.367188 18.636719 61.292969 17.949219 62.25 17.308594 C 63.210938 16.667969 64.199219 16.074219 65.214844 15.53125 C 66.234375 14.988281 67.277344 14.496094 68.339844 14.054688 C 69.40625 13.613281 70.492188 13.222656 71.597656 12.890625 C 72.699219 12.554688 73.816406 12.273438 74.949219 12.050781 C 76.082031 11.824219 77.222656 11.65625 78.367188 11.542969 C 79.515625 11.429688 80.667969 11.371094 81.820312 11.371094 Z M 81.820312 11.371094 " fill-opacity="1" fill-rule="nonzero"/></g><g fill="#ffffff" fill-opacity="1"><g transform="translate(81.82155, 266.225579)"><g><path d="M 66.875 -49.6875 C 66.875 -45.007812 65.804688 -40.828125 63.671875 -37.140625 C 61.535156 -33.460938 58.476562 -30.617188 54.5 -28.609375 C 50.53125 -26.597656 45.8125 -25.59375 40.34375 -25.59375 L 22.296875 -25.59375 L 22.296875 0 L 7.0625 0 L 7.0625 -72.703125 L 39.734375 -72.703125 C 48.429688 -72.703125 55.128906 -70.695312 59.828125 -66.6875 C 64.523438 -62.675781 66.875 -57.007812 66.875 -49.6875 Z M 51.546875 -49.4375 C 51.546875 -57.070312 47.039062 -60.890625 38.03125 -60.890625 L 22.296875 -60.890625 L 22.296875 -37.3125 L 38.4375 -37.3125 C 42.632812 -37.3125 45.867188 -38.347656 48.140625 -40.421875 C 50.410156 -42.503906 51.546875 -45.507812 51.546875 -49.4375 Z M 51.546875 -49.4375 "/></g></g></g><g fill="#ffffff" fill-opacity="1"><g transform="translate(152.301255, 266.225579)"><g><path d="M 71.875 -36.890625 C 71.875 -29.390625 70.398438 -22.84375 67.453125 -17.25 C 64.515625 -11.664062 60.351562 -7.394531 54.96875 -4.4375 C 49.59375 -1.476562 43.429688 0 36.484375 0 L 7.0625 0 L 7.0625 -72.703125 L 33.390625 -72.703125 C 45.628906 -72.703125 55.101562 -69.613281 61.8125 -63.4375 C 68.519531 -57.257812 71.875 -48.410156 71.875 -36.890625 Z M 56.546875 -36.890625 C 56.546875 -44.703125 54.515625 -50.660156 50.453125 -54.765625 C 46.398438 -58.878906 40.609375 -60.9375 33.078125 -60.9375 L 22.296875 -60.9375 L 22.296875 -11.765625 L 35.1875 -11.765625 C 41.726562 -11.765625 46.921875 -14.015625 50.765625 -18.515625 C 54.617188 -23.023438 56.546875 -29.148438 56.546875 -36.890625 Z M 56.546875 -36.890625 "/></g></g></g><g fill="#ffffff" fill-opacity="1"><g transform="translate(228.611278, 266.225579)"><g><path d="M 22.296875 -60.9375 L 22.296875 -38.4375 L 59.484375 -38.4375 L 59.484375 -26.671875 L 22.296875 -26.671875 L 22.296875 0 L 7.0625 0 L 7.0625 -72.703125 L 60.671875 -72.703125 L 60.671875 -60.9375 Z M 22.296875 -60.9375 "/></g></g></g><g clip-path="url(#98fc9affea)"><path fill="#000080" d="M 328.398438 169.179688 L 237.164062 110.355469 L 282.78125 73.542969 L 328.398438 117.046875 Z M 328.398438 169.179688 " fill-opacity="1" fill-rule="nonzero"/></g><g clip-path="url(#dbc6b75a95)"><path fill="#2f2fd8" d="M 222.722656 11.371094 L 222.722656 81.820312 C 222.722656 82.976562 222.777344 84.125 222.890625 85.273438 C 223.003906 86.421875 223.171875 87.5625 223.398438 88.695312 C 223.625 89.824219 223.902344 90.945312 224.238281 92.046875 C 224.574219 93.152344 224.960938 94.238281 225.402344 95.300781 C 225.84375 96.367188 226.335938 97.410156 226.882812 98.425781 C 227.425781 99.445312 228.015625 100.433594 228.660156 101.390625 C 229.300781 102.351562 229.984375 103.277344 230.71875 104.167969 C 231.449219 105.0625 232.222656 105.914062 233.039062 106.730469 C 233.855469 107.546875 234.707031 108.320312 235.601562 109.050781 C 236.492188 109.785156 237.417969 110.46875 238.378906 111.109375 C 239.335938 111.75 240.324219 112.34375 241.34375 112.886719 C 242.359375 113.433594 243.402344 113.925781 244.46875 114.367188 C 245.53125 114.808594 246.617188 115.195312 247.722656 115.53125 C 248.824219 115.867188 249.945312 116.144531 251.074219 116.371094 C 252.207031 116.59375 253.347656 116.765625 254.496094 116.878906 C 255.640625 116.992188 256.792969 117.046875 257.945312 117.046875 L 328.398438 117.046875 Z M 222.722656 11.371094 " fill-opacity="1" fill-rule="nonzero"/></g></svg>