<svg xmlns="http://www.w3.org/2000/svg" xmlns:xlink="http://www.w3.org/1999/xlink" width="500" zoomAndPan="magnify" viewBox="0 0 375 374.999991" height="500" preserveAspectRatio="xMidYMid meet" version="1.0"><defs><clipPath id="ba85ae27db"><path d="M 57 13.65625 L 318 13.65625 L 318 361.65625 L 57 361.65625 Z M 57 13.65625 " clip-rule="nonzero"/></clipPath></defs><g clip-path="url(#ba85ae27db)"><path fill="#000000" d="M 57.117188 354.40625 L 57.117188 20.90625 C 57.117188 16.902344 60.363281 13.65625 64.359375 13.65625 L 242.570312 13.65625 C 244.457031 13.65625 246.269531 14.410156 247.625 15.769531 L 315.757812 83.964844 C 317.113281 85.324219 317.867188 87.136719 317.867188 89.023438 L 317.867188 354.40625 C 317.867188 358.40625 314.625 361.65625 310.625 361.65625 L 64.359375 361.65625 C 60.363281 361.65625 57.117188 358.40625 57.117188 354.40625 Z M 303.382812 347.15625 L 303.382812 100.65625 L 238.195312 100.65625 C 234.195312 100.65625 230.953125 97.40625 230.953125 93.40625 L 230.953125 28.15625 L 71.601562 28.15625 L 71.601562 347.15625 Z M 303.382812 347.15625 " fill-opacity="1" fill-rule="nonzero"/></g><path fill="#000000" d="M 267.167969 158.65625 L 107.820312 158.65625 C 103.820312 158.65625 100.574219 155.40625 100.574219 151.40625 C 100.574219 147.402344 103.820312 144.15625 107.820312 144.15625 L 267.167969 144.15625 C 271.164062 144.15625 274.410156 147.402344 274.410156 151.40625 C 274.410156 155.40625 271.164062 158.65625 267.167969 158.65625 Z M 209.222656 202.15625 L 107.820312 202.15625 C 103.820312 202.15625 100.574219 198.90625 100.574219 194.90625 C 100.574219 190.902344 103.820312 187.65625 107.820312 187.65625 L 209.222656 187.65625 C 213.222656 187.65625 216.464844 190.902344 216.464844 194.90625 C 216.464844 198.90625 213.222656 202.15625 209.222656 202.15625 Z M 238.195312 245.65625 L 107.820312 245.65625 C 103.820312 245.65625 100.574219 242.40625 100.574219 238.40625 C 100.574219 234.402344 103.820312 231.15625 107.820312 231.15625 L 238.195312 231.15625 C 242.191406 231.15625 245.4375 234.402344 245.4375 238.40625 C 245.4375 242.40625 242.191406 245.65625 238.195312 245.65625 Z M 180.25 289.15625 L 107.820312 289.15625 C 103.820312 289.15625 100.574219 285.90625 100.574219 281.90625 C 100.574219 277.902344 103.820312 274.65625 107.820312 274.65625 L 180.25 274.65625 C 184.25 274.65625 187.492188 277.902344 187.492188 281.90625 C 187.492188 285.90625 184.25 289.15625 180.25 289.15625 Z M 180.25 289.15625 " fill-opacity="1" fill-rule="nonzero"/></svg>