<svg xmlns="http://www.w3.org/2000/svg" xmlns:xlink="http://www.w3.org/1999/xlink" width="500" zoomAndPan="magnify" viewBox="0 0 375 374.999991" height="500" preserveAspectRatio="xMidYMid meet" version="1.0"><defs><clipPath id="4b19c9fe47"><path d="M 22.195312 53.191406 L 352.945312 53.191406 L 352.945312 321.691406 L 22.195312 321.691406 Z M 22.195312 53.191406 " clip-rule="nonzero"/></clipPath></defs><g clip-path="url(#4b19c9fe47)"><path fill="#ffffff" d="M 48.027344 270.148438 L 89.351562 270.148438 L 89.351562 316.640625 C 89.351562 319.742188 91.417969 321.808594 94.515625 321.808594 L 280.484375 321.808594 C 283.582031 321.808594 285.648438 319.742188 285.648438 316.640625 L 285.648438 270.148438 L 326.972656 270.148438 C 340.921875 270.148438 352.804688 258.785156 352.804688 244.320312 L 352.804688 146.171875 C 352.804688 131.707031 341.4375 120.34375 326.972656 120.34375 L 306.3125 120.34375 L 306.3125 89.351562 C 306.3125 86.25 304.246094 84.183594 301.144531 84.183594 L 285.648438 84.183594 L 285.648438 58.355469 C 285.648438 55.257812 283.582031 53.191406 280.484375 53.191406 L 94.515625 53.191406 C 91.417969 53.191406 89.351562 55.257812 89.351562 58.355469 L 89.351562 84.183594 L 73.855469 84.183594 C 70.753906 84.183594 68.6875 86.25 68.6875 89.351562 L 68.6875 120.34375 L 48.027344 120.34375 C 34.078125 120.34375 22.195312 131.707031 22.195312 146.171875 L 22.195312 244.320312 C 22.195312 258.785156 34.078125 270.148438 48.027344 270.148438 Z M 99.683594 63.519531 L 275.316406 63.519531 L 275.316406 125.511719 C 275.316406 128.609375 277.382812 130.675781 280.484375 130.675781 C 283.582031 130.675781 285.648438 128.609375 285.648438 125.511719 L 285.648438 94.515625 L 295.980469 94.515625 L 295.980469 151.339844 L 99.683594 151.339844 Z M 79.019531 94.515625 L 89.351562 94.515625 L 89.351562 151.339844 L 79.019531 151.339844 Z M 33.046875 146.171875 C 33.046875 137.90625 39.761719 130.675781 48.542969 130.675781 L 69.203125 130.675781 L 69.203125 151.339844 L 58.355469 151.339844 C 55.257812 151.339844 53.191406 153.40625 53.191406 156.503906 C 53.191406 159.605469 55.257812 161.667969 58.355469 161.667969 L 316.644531 161.667969 C 319.742188 161.667969 321.808594 159.605469 321.808594 156.503906 C 321.808594 153.40625 319.742188 151.339844 316.644531 151.339844 L 306.3125 151.339844 L 306.3125 130.675781 L 326.972656 130.675781 C 335.238281 130.675781 342.472656 137.390625 342.472656 146.171875 L 342.472656 244.320312 C 342.472656 252.585938 335.757812 259.820312 326.972656 259.820312 L 285.648438 259.820312 L 285.648438 244.320312 C 285.648438 241.222656 283.582031 239.15625 280.484375 239.15625 C 277.382812 239.15625 275.316406 241.222656 275.316406 244.320312 L 275.316406 311.476562 L 99.683594 311.476562 L 99.683594 218.492188 L 275.316406 218.492188 L 275.316406 223.660156 C 275.316406 226.757812 277.382812 228.824219 280.484375 228.824219 C 283.582031 228.824219 285.648438 226.757812 285.648438 223.660156 L 285.648438 213.328125 C 285.648438 210.226562 283.582031 208.160156 280.484375 208.160156 L 94.515625 208.160156 C 91.417969 208.160156 89.351562 210.226562 89.351562 213.328125 L 89.351562 259.820312 L 48.027344 259.820312 C 39.761719 259.820312 32.527344 253.101562 32.527344 244.320312 Z M 33.046875 146.171875 " fill-opacity="1" fill-rule="nonzero"/></g><path fill="#ffffff" d="M 58.875 192.664062 C 60.421875 192.664062 61.457031 192.148438 62.488281 191.113281 C 63.523438 190.082031 64.039062 189.046875 64.039062 187.5 C 64.039062 185.949219 63.523438 184.914062 62.488281 183.882812 C 60.421875 181.816406 57.324219 181.816406 55.257812 183.882812 C 54.222656 184.914062 53.707031 185.949219 53.707031 187.5 C 53.707031 189.046875 54.222656 190.082031 55.257812 191.113281 C 55.773438 192.148438 57.324219 192.664062 58.875 192.664062 Z M 58.875 192.664062 " fill-opacity="1" fill-rule="nonzero"/><path fill="#ffffff" d="M 301.144531 192.664062 C 302.695312 192.664062 303.726562 192.148438 304.761719 191.113281 C 305.792969 190.082031 306.3125 188.53125 306.3125 187.5 C 306.3125 185.949219 305.792969 184.914062 304.761719 183.882812 C 302.695312 181.816406 299.597656 181.816406 297.53125 183.882812 C 296.496094 184.914062 295.980469 185.949219 295.980469 187.5 C 295.980469 189.046875 296.496094 190.082031 297.53125 191.113281 C 298.5625 192.148438 299.597656 192.664062 301.144531 192.664062 Z M 301.144531 192.664062 " fill-opacity="1" fill-rule="nonzero"/><path fill="#ffffff" d="M 249.488281 259.820312 L 125.511719 259.820312 C 122.410156 259.820312 120.34375 261.882812 120.34375 264.984375 C 120.34375 268.082031 122.410156 270.148438 125.511719 270.148438 L 249.488281 270.148438 C 252.585938 270.148438 254.652344 268.082031 254.652344 264.984375 C 254.652344 261.882812 252.585938 259.820312 249.488281 259.820312 Z M 249.488281 259.820312 " fill-opacity="1" fill-rule="nonzero"/><path fill="#ffffff" d="M 249.488281 285.648438 L 239.15625 285.648438 C 236.058594 285.648438 233.992188 287.714844 233.992188 290.8125 C 233.992188 293.914062 236.058594 295.976562 239.15625 295.976562 L 249.488281 295.976562 C 252.585938 295.976562 254.652344 293.914062 254.652344 290.8125 C 254.652344 287.714844 252.585938 285.648438 249.488281 285.648438 Z M 249.488281 285.648438 " fill-opacity="1" fill-rule="nonzero"/><path fill="#ffffff" d="M 208.164062 285.648438 L 125.511719 285.648438 C 122.410156 285.648438 120.34375 287.714844 120.34375 290.8125 C 120.34375 293.914062 122.410156 295.976562 125.511719 295.976562 L 208.164062 295.976562 C 211.261719 295.976562 213.328125 293.914062 213.328125 290.8125 C 213.328125 287.714844 211.261719 285.648438 208.164062 285.648438 Z M 208.164062 285.648438 " fill-opacity="1" fill-rule="nonzero"/><path fill="#ffffff" d="M 125.511719 244.320312 L 172.003906 244.320312 C 175.101562 244.320312 177.167969 242.253906 177.167969 239.15625 C 177.167969 236.054688 175.101562 233.988281 172.003906 233.988281 L 125.511719 233.988281 C 122.410156 233.988281 120.34375 236.054688 120.34375 239.15625 C 120.34375 242.253906 122.410156 244.320312 125.511719 244.320312 Z M 125.511719 244.320312 " fill-opacity="1" fill-rule="nonzero"/><path fill="#ffffff" d="M 249.488281 233.988281 L 202.996094 233.988281 C 199.898438 233.988281 197.832031 236.054688 197.832031 239.15625 C 197.832031 242.253906 199.898438 244.320312 202.996094 244.320312 L 249.488281 244.320312 C 252.585938 244.320312 254.652344 242.253906 254.652344 239.15625 C 254.652344 236.054688 252.585938 233.988281 249.488281 233.988281 Z M 249.488281 233.988281 " fill-opacity="1" fill-rule="nonzero"/><path fill="#ffffff" d="M 254.652344 192.664062 L 280.484375 192.664062 C 283.582031 192.664062 285.648438 190.597656 285.648438 187.5 C 285.648438 184.398438 283.582031 182.332031 280.484375 182.332031 L 254.652344 182.332031 C 251.554688 182.332031 249.488281 184.398438 249.488281 187.5 C 249.488281 190.597656 251.554688 192.664062 254.652344 192.664062 Z M 254.652344 192.664062 " fill-opacity="1" fill-rule="nonzero"/></svg>