<svg xmlns="http://www.w3.org/2000/svg" xmlns:xlink="http://www.w3.org/1999/xlink" width="500" zoomAndPan="magnify" viewBox="0 0 375 374.999991" height="500" preserveAspectRatio="xMidYMid meet" version="1.0"><defs><clipPath id="8bd1447729"><path d="M 32.0625 14.3125 L 342.5625 14.3125 L 342.5625 360.8125 L 32.0625 360.8125 Z M 32.0625 14.3125 " clip-rule="nonzero"/></clipPath></defs><g clip-path="url(#8bd1447729)"><path fill="#ffffff" d="M 342.886719 140.703125 L 342.886719 170.4375 C 342.886719 184.105469 331.820312 195.222656 318.214844 195.222656 C 304.613281 195.222656 293.546875 184.101562 293.546875 170.4375 L 293.546875 148.765625 C 293.53125 148.527344 293.40625 148.320312 293.40625 148.074219 C 293.40625 87.980469 245.816406 39.089844 187.324219 39.089844 C 130.175781 39.089844 83.566406 85.78125 81.445312 143.96875 L 81.445312 175.398438 C 81.445312 191.796875 94.722656 205.136719 111.050781 205.136719 C 116.5 205.136719 120.917969 209.574219 120.917969 215.046875 C 120.917969 220.523438 116.5 224.960938 111.050781 224.960938 C 90.257812 224.960938 72.519531 211.933594 65.265625 193.617188 C 62.605469 194.601562 59.769531 195.222656 56.773438 195.222656 C 43.167969 195.222656 32.101562 184.105469 32.101562 170.441406 L 32.101562 140.703125 C 32.101562 127.035156 43.167969 115.917969 56.773438 115.917969 C 58.03125 115.917969 59.246094 116.109375 60.453125 116.292969 C 74.453125 57.855469 125.945312 14.3125 187.324219 14.3125 C 248.710938 14.3125 300.214844 57.871094 314.199219 116.328125 C 315.515625 116.109375 316.839844 115.917969 318.214844 115.917969 C 331.820312 115.917969 342.886719 127.039062 342.886719 140.703125 Z M 268.671875 148.074219 C 268.671875 102.945312 232.25 66.355469 187.320312 66.355469 C 142.394531 66.355469 105.976562 102.945312 105.976562 148.074219 C 105.976562 193.207031 142.394531 229.792969 187.320312 229.792969 C 232.25 229.792969 268.671875 193.207031 268.671875 148.074219 Z M 268.304688 254.578125 L 239.34375 254.578125 C 232.894531 254.578125 226.855469 257.738281 223.164062 263.046875 L 202.914062 292.164062 C 194.996094 303.550781 178.175781 303.4375 170.410156 291.945312 L 151.023438 263.265625 C 147.351562 257.828125 141.234375 254.574219 134.695312 254.574219 L 106.257812 254.574219 C 69.625 254.574219 39.929688 284.402344 39.929688 321.199219 L 39.929688 350.769531 C 39.929688 356.242188 44.347656 360.679688 49.800781 360.679688 L 324.761719 360.679688 C 330.210938 360.679688 334.632812 356.242188 334.632812 350.769531 L 334.632812 321.199219 C 334.628906 284.40625 304.9375 254.578125 268.304688 254.578125 Z M 268.304688 254.578125 " fill-opacity="1" fill-rule="nonzero"/></g></svg>